<svg width="20" height="21" viewBox="0 0 20 21" fill="none" xmlns="http://www.w3.org/2000/svg">
<path d="M2.5 5.5H4.16667H17.5" stroke="#ED0A34" stroke-width="1.5" stroke-linecap="round" stroke-linejoin="round"/>
<path d="M15.8334 5.49935V17.166C15.8334 17.608 15.6578 18.032 15.3453 18.3445C15.0327 18.6571 14.6088 18.8327 14.1667 18.8327H5.83341C5.39139 18.8327 4.96746 18.6571 4.6549 18.3445C4.34234 18.032 4.16675 17.608 4.16675 17.166V5.49935M6.66675 5.49935V3.83268C6.66675 3.39065 6.84234 2.96673 7.1549 2.65417C7.46746 2.34161 7.89139 2.16602 8.33341 2.16602H11.6667C12.1088 2.16602 12.5327 2.34161 12.8453 2.65417C13.1578 2.96673 13.3334 3.39065 13.3334 3.83268V5.49935" stroke="#ED0A34" stroke-width="1.5" stroke-linecap="round" stroke-linejoin="round"/>
<path d="M8.33325 9.66602V14.666" stroke="#ED0A34" stroke-width="1.5" stroke-linecap="round" stroke-linejoin="round"/>
<path d="M11.6667 9.66602V14.666" stroke="#ED0A34" stroke-width="1.5" stroke-linecap="round" stroke-linejoin="round"/>
</svg>
