<svg width="15" height="15" viewBox="0 0 15 15" fill="none" xmlns="http://www.w3.org/2000/svg">
<g clip-path="url(#clip0_188_281)">
<path d="M10.625 1.87568C10.7892 1.71152 10.984 1.58131 11.1985 1.49247C11.413 1.40363 11.6429 1.35791 11.875 1.35791C12.1071 1.35791 12.337 1.40363 12.5515 1.49247C12.766 1.58131 12.9608 1.71152 13.125 1.87568C13.2892 2.03983 13.4194 2.23471 13.5082 2.44918C13.597 2.66366 13.6428 2.89353 13.6428 3.12568C13.6428 3.35782 13.597 3.5877 13.5082 3.80217C13.4194 4.01665 13.2892 4.21152 13.125 4.37568L4.6875 12.8132L1.25 13.7507L2.1875 10.3132L10.625 1.87568Z" stroke="#46515F" stroke-width="1.5" stroke-linecap="round" stroke-linejoin="round"/>
</g>
<defs>
<clipPath id="clip0_188_281">
<rect width="15" height="15" fill="white"/>
</clipPath>
</defs>
</svg>
