<svg width="18" height="18" viewBox="0 0 18 18" fill="none" xmlns="http://www.w3.org/2000/svg">
<g clip-path="url(#clip0_3_793)">
<path d="M8.99999 11.0603C10.1379 11.0603 11.0603 10.1379 11.0603 9.00001C11.0603 7.86214 10.1379 6.93972 8.99999 6.93972C7.86212 6.93972 6.9397 7.86214 6.9397 9.00001C6.9397 10.1379 7.86212 11.0603 8.99999 11.0603Z" stroke="#4361EE" stroke-width="1.12379" stroke-linecap="round" stroke-linejoin="round"/>
<path d="M14.082 11.0608C13.9906 11.268 13.9633 11.4978 14.0037 11.7205C14.0441 11.9433 14.1503 12.1489 14.3086 12.3107L14.3498 12.352C14.4775 12.4795 14.5789 12.631 14.648 12.7977C14.7171 12.9645 14.7527 13.1432 14.7527 13.3237C14.7527 13.5042 14.7171 13.683 14.648 13.8497C14.5789 14.0164 14.4775 14.1679 14.3498 14.2955C14.2223 14.4232 14.0708 14.5245 13.904 14.5936C13.7373 14.6628 13.5586 14.6983 13.3781 14.6983C13.1976 14.6983 13.0188 14.6628 12.8521 14.5936C12.6853 14.5245 12.5339 14.4232 12.4063 14.2955L12.3651 14.2543C12.2032 14.096 11.9977 13.9898 11.7749 13.9494C11.5521 13.909 11.3223 13.9362 11.1152 14.0277C10.9121 14.1147 10.7388 14.2593 10.6168 14.4435C10.4948 14.6278 10.4293 14.8437 10.4284 15.0647V15.1814C10.4284 15.5457 10.2837 15.8951 10.0261 16.1526C9.76854 16.4102 9.41918 16.5549 9.05489 16.5549C8.69061 16.5549 8.34125 16.4102 8.08366 16.1526C7.82608 15.8951 7.68137 15.5457 7.68137 15.1814V15.1196C7.67605 14.8923 7.60247 14.6718 7.47019 14.4869C7.33792 14.302 7.15306 14.1611 6.93966 14.0826C6.73252 13.9912 6.50275 13.9639 6.27997 14.0043C6.05718 14.0447 5.85161 14.1509 5.68975 14.3092L5.64855 14.3504C5.52098 14.4781 5.3695 14.5795 5.20276 14.6486C5.03601 14.7177 4.85728 14.7533 4.67678 14.7533C4.49627 14.7533 4.31754 14.7177 4.1508 14.6486C3.98406 14.5795 3.83257 14.4781 3.70501 14.3504C3.5773 14.2229 3.47599 14.0714 3.40687 13.9046C3.33775 13.7379 3.30217 13.5592 3.30217 13.3787C3.30217 13.1982 3.33775 13.0194 3.40687 12.8527C3.47599 12.6859 3.5773 12.5345 3.70501 12.4069L3.74621 12.3657C3.90454 12.2038 4.01074 11.9983 4.05114 11.7755C4.09153 11.5527 4.06426 11.3229 3.97285 11.1158C3.88579 10.9127 3.74124 10.7394 3.55699 10.6174C3.37273 10.4954 3.15682 10.4299 2.93583 10.429H2.81908C2.4548 10.429 2.10544 10.2843 1.84785 10.0267C1.59027 9.76913 1.44556 9.41977 1.44556 9.05549C1.44556 8.69121 1.59027 8.34185 1.84785 8.08426C2.10544 7.82667 2.4548 7.68196 2.81908 7.68196H2.88089C3.10821 7.67665 3.32866 7.60307 3.51361 7.47079C3.69855 7.33852 3.83942 7.15366 3.9179 6.94026C4.00932 6.73312 4.03659 6.50335 3.9962 6.28056C3.9558 6.05778 3.8496 5.85221 3.69127 5.69035L3.65007 5.64914C3.52236 5.52158 3.42105 5.3701 3.35193 5.20335C3.28281 5.03661 3.24723 4.85788 3.24723 4.67737C3.24723 4.49687 3.28281 4.31814 3.35193 4.1514C3.42105 3.98465 3.52236 3.83317 3.65007 3.7056C3.77763 3.5779 3.92911 3.47659 4.09586 3.40747C4.2626 3.33835 4.44133 3.30277 4.62184 3.30277C4.80234 3.30277 4.98107 3.33835 5.14782 3.40747C5.31456 3.47659 5.46604 3.5779 5.59361 3.7056L5.63481 3.74681C5.79667 3.90513 6.00224 4.01134 6.22502 4.05174C6.44781 4.09213 6.67758 4.06486 6.88472 3.97344H6.93966C7.14279 3.88639 7.31602 3.74184 7.43804 3.55758C7.56006 3.37333 7.62554 3.15742 7.62643 2.93643V2.81968C7.62643 2.4554 7.77114 2.10604 8.02872 1.84845C8.28631 1.59086 8.63567 1.44615 8.99995 1.44615C9.36423 1.44615 9.7136 1.59086 9.97118 1.84845C10.2288 2.10604 10.3735 2.4554 10.3735 2.81968V2.88149C10.3744 3.10248 10.4398 3.31839 10.5619 3.50264C10.6839 3.68689 10.8571 3.83145 11.0602 3.9185C11.2674 4.00992 11.4972 4.03719 11.7199 3.9968C11.9427 3.9564 12.1483 3.85019 12.3102 3.69187L12.3514 3.65066C12.4789 3.52296 12.6304 3.42165 12.7971 3.35253C12.9639 3.2834 13.1426 3.24783 13.3231 3.24783C13.5036 3.24783 13.6824 3.2834 13.8491 3.35253C14.0158 3.42165 14.1673 3.52296 14.2949 3.65066C14.4226 3.77823 14.5239 3.92971 14.593 4.09645C14.6622 4.2632 14.6977 4.44193 14.6977 4.62243C14.6977 4.80294 14.6622 4.98167 14.593 5.14841C14.5239 5.31516 14.4226 5.46664 14.2949 5.5942L14.2537 5.63541C14.0954 5.79727 13.9892 6.00284 13.9488 6.22562C13.9084 6.4484 13.9356 6.67818 14.0271 6.88532V6.94026C14.1141 7.14338 14.2587 7.31662 14.4429 7.43864C14.6272 7.56066 14.8431 7.62614 15.0641 7.62702H15.1808C15.5451 7.62702 15.8945 7.77173 16.1521 8.02932C16.4096 8.28691 16.5543 8.63627 16.5543 9.00055C16.5543 9.36483 16.4096 9.71419 16.1521 9.97178C15.8945 10.2294 15.5451 10.3741 15.1808 10.3741H15.119C14.898 10.375 14.6821 10.4404 14.4979 10.5625C14.3136 10.6845 14.1691 10.8577 14.082 11.0608V11.0608Z" stroke="#4361EE" stroke-width="1.12379" stroke-linecap="round" stroke-linejoin="round"/>
</g>
<defs>
<clipPath id="clip0_3_793">
<rect width="16.4823" height="16.4823" fill="white" transform="translate(0.758789 0.758842)"/>
</clipPath>
</defs>
</svg>
