<svg width="16" height="4" viewBox="0 0 16 4" fill="none" xmlns="http://www.w3.org/2000/svg">
<path d="M6.71579 1.60715C6.71579 0.714294 7.4484 8.58307e-06 8.36415 8.58307e-06C9.27991 8.58307e-06 10.0125 0.714294 10.0125 1.60715C10.0125 2.50001 9.27991 3.21429 8.36415 3.21429C7.4484 3.21429 6.71579 2.50001 6.71579 1.60715ZM2.50331 3.21429C3.41907 3.21429 4.15167 2.50001 4.15167 1.60715C4.15167 0.714294 3.41907 8.58307e-06 2.50331 8.58307e-06C1.58755 8.58307e-06 0.85495 0.714294 0.85495 1.60715C0.85495 2.50001 1.58755 3.21429 2.50331 3.21429ZM14.225 3.21429C15.1407 3.21429 15.8734 2.50001 15.8734 1.60715C15.8734 0.714294 15.1407 8.58307e-06 14.225 8.58307e-06C13.3092 8.58307e-06 12.5766 0.714294 12.5766 1.60715C12.5766 2.50001 13.3092 3.21429 14.225 3.21429Z" fill="white"/>
</svg>
